<svg xmlns="http://www.w3.org/2000/svg" width="1100" height="1100">
  <circle fill="rgba(255, 178, 13, 0)" cx="550" cy="550" r="550" />
  <circle fill="#ffb30d" cx="550" cy="550" r="512" />
  <circle fill="rgba(255, 178, 13, 0)" cx="550" cy="550" r="445" />
  <path fill="#fcc329"
    d="M 548 524 l 119 -219 c 22.7 -88.7 -48.5 -157.3 -119 -159.3 S 400.3 217 424 305 l 124 219 z m 20.8 14 H 818.1 c 88.7 -22 115.1 -117.7 83.2 -180.6 c -31.9 -62.9 -133.2 -95.7 -199.2 -32.9 L 568.8 538 z m 5.1 24.9 L 706 774.2 c 66 63.4 160.8 35.2 197.3 -25.2 c 36.4 -60.4 10.5 -163.7 -77.7 -186.3 l -251.7 0.2 z m -24.6 9.1 L 433 792.4 c -21.6 88.9 50.4 156.7 120.9 157.9 c 70.5 1.1 146.8 -73.1 122 -160.8 L 549.3 572 z m -23.4 -9.5 l -249.2 0.3 c -88.7 22.5 -114.9 117.9 -82.9 180.7 c 32 62.9 143 97.7 208.9 34.8 L 525.9 562.5 z m 1.2 -24.3 L 395.3 326.6 c -65.9 -63.5 -160.8 -35.4 -197.3 24.9 C 161.5 411.9 187.2 515.2 275.4 538 l 251.7 0.2 z" />
</svg>
